<svg xmlns="http://www.w3.org/2000/svg" id="Шар_1" data-name="Шар 1" viewBox="0 0 155.83 31.77"><defs/><path d="M22.37 5.41a9.44 9.44 0 0 0-4.31-3.83A16.32 16.32 0 0 0 11.21.27H.59v5.66h6.09V6h4.66A6.88 6.88 0 0 1 16 7.34a4.93 4.93 0 0 1 1.63 4v9.2a4.92 4.92 0 0 1-1.63 4 6.88 6.88 0 0 1-4.61 1.39H.59v5.68h10.59a15.76 15.76 0 0 0 7-1.4 9.57 9.57 0 0 0 4.27-3.91 11.75 11.75 0 0 0 1.42-5.89v-8.94a11.73 11.73 0 0 0-1.5-6.06Z" class="cls-1"/><path d="M.59 14.04H11v5.88H.59z" class="cls-1"/><path d="M.59 18.63h6.39v9.68H.59zM51 7h4.61v24.5H51Zm1.84 10.21h8.52a2.18 2.18 0 0 0 1.24-.36 2.28 2.28 0 0 0 .84-1 3.94 3.94 0 0 0 .31-1.51 3.62 3.62 0 0 0-.3-1.52 2.25 2.25 0 0 0-.83-1 2.21 2.21 0 0 0-1.26-.35h-8.52V7h8.89a6.89 6.89 0 0 1 3.55.91 6.14 6.14 0 0 1 2.37 2.57 8.4 8.4 0 0 1 .84 3.85 8.36 8.36 0 0 1-.84 3.84 6 6 0 0 1-2.38 2.57 6.81 6.81 0 0 1-3.54.91h-8.89ZM58 20.92l4.93-.77 6.6 11.38h-5.6ZM94.09 7.05h4.61v24.48h-4.61Zm2.32 20h5.88a5.17 5.17 0 0 0 3.52-1.1 3.9 3.9 0 0 0 1.24-3.1v-7.2a3.9 3.9 0 0 0-1.24-3.1 5.17 5.17 0 0 0-3.52-1.1h-5.88v-4.4h5.78a12 12 0 0 1 5.22 1 7.28 7.28 0 0 1 3.3 3 9.46 9.46 0 0 1 1.12 4.75v6.94a9.43 9.43 0 0 1-1.08 4.61 7.47 7.47 0 0 1-3.26 3.07 11.73 11.73 0 0 1-5.32 1.09h-5.76ZM116.38 7.05H121v24.48h-4.61Zm1.67 0h14.73v4.44h-14.73Zm0 10.1h12.88v4.45h-12.88Zm0 9.94h14.73v4.44h-14.73ZM144.5 16.46l5.5-9.41h4.87l-8.1 13.84-6.23 10.64h-4.87Zm-.05 5.05-.47-.79-8.1-13.67h4.86l5.49 9.28.64 1.09 8.37 14.11h-4.87ZM41.68 22.75A4.53 4.53 0 0 1 40.55 26a4.31 4.31 0 0 1-3.21 1.16A4.24 4.24 0 0 1 34.16 26 4.48 4.48 0 0 1 33 22.75v-2.88h-4.59v2.76a10.71 10.71 0 0 0 1.05 4.93 7.05 7.05 0 0 0 3 3.11 10.14 10.14 0 0 0 4.83 1.07 10.23 10.23 0 0 0 4.84-1.07 7.13 7.13 0 0 0 3.06-3.11 10.71 10.71 0 0 0 1.06-4.93V7h-4.57ZM28.41 7.01h4.61V14h-4.61zM76 30.7a7.07 7.07 0 0 1-3-3.12 10.73 10.73 0 0 1-1-4.94V7h4.64v15.76A4.46 4.46 0 0 0 77.68 26a4.27 4.27 0 0 0 3.2 1.17A4.33 4.33 0 0 0 84.12 26a4.46 4.46 0 0 0 1.14-3.27V7h4.65v15.64a10.72 10.72 0 0 1-1.06 4.94 7.17 7.17 0 0 1-3.09 3.12 11.62 11.62 0 0 1-9.74 0Z" class="cls-1"/></svg>